<?xml version="1.0" encoding="UTF-8"?>
<!-- Generator: Adobe Illustrator 21.0.0, SVG Export Plug-In . SVG Version: 6.00 Build 0)  -->
<svg version="1.1" id="Capa_1" xmlns="http://www.w3.org/2000/svg" xmlns:xlink="http://www.w3.org/1999/xlink" x="0px" y="0px" viewBox="0 0 1025 480" style="enable-background:new 0 0 1025 480;" xml:space="preserve">
<style type="text/css">
	.st0{fill:#EFCA2B;}
	.st1{fill:#D6B425;}
	.st2{fill:#CCA915;}
	.st3{fill:#FC8108;}
</style>
<g>
	<polygon class="st0" points="233.5,188.4 237.6,453.5 446.3,349.1 446.3,89  "/>
	<polygon class="st1" points="31.4,89 233.5,188.4 237.6,453.5 31.4,350.8  "/>
	<polygon class="st2" points="237.6,3.3 31.4,89 233.5,188.4 446.3,89  "/>
	<g>
		<path class="st3" d="M606.1,187.3c-6.6,9.5-16,14.2-28.2,14.2c-14.5,0-25.2-5.8-32.4-17.5c-5.8-9.4-8.7-21.3-8.7-35.8    c0-14.2,2.8-26.2,8.4-35.8c7.1-12.1,17.8-18.1,31.9-18.1c10.5,0,19,3.4,25.4,10.1c5.6,5.9,9.2,14.9,11,26.9h-7    c-3.2-19.8-13-29.7-29.4-29.7c-11.8,0-20.6,5.2-26.5,15.5c-4.6,8.2-7,18.5-7,31c0,12.7,2.4,23.1,7.1,31.1c6,10,15,15,27.1,15    c9.3,0,16.7-3.6,22.1-10.8c5.1-6.6,7.6-14.7,7.6-24.2v-2.8H576v-7.3h38.3c0.2,3.5,0.3,6.2,0.3,8.2    C614.6,169.4,611.8,179.4,606.1,187.3z"/>
		<path class="st3" d="M625.5,200.5v-105h57.3v7.3h-50.5v39.5H677v7.1h-44.8v43.8h51.1v7.3H625.5z"/>
		<path class="st3" d="M722.3,201.6c-11.3,0-19.8-3.1-25.6-9.4c-5.8-6.3-8.7-14.8-8.7-25.6v-3.7h7v3.1c0,18.9,9.1,28.3,27.4,28.3    c7.3,0,13.1-1.8,17.3-5.3c4.2-3.6,6.4-8.8,6.4-15.6c0-4.9-0.7-8.6-2.2-11.2c-1.8-2.9-4.8-5.2-9.1-7c-2.2-0.9-7.2-2.6-15.2-5    c-9.5-2.9-15.9-5.5-19.2-7.9c-6.6-4.9-9.9-11.9-9.9-21.1c0-18,9.9-26.9,29.7-26.9c20.6,0,31.1,11.3,31.3,33.8h-6.7    c-0.4-9.3-2.4-16-6-20.2c-3.6-4.2-9.8-6.3-18.6-6.3c-15.3,0-22.9,6.6-22.9,19.7c0,6.2,1.9,10.9,5.7,14.1c2.9,2.4,8,4.5,15.3,6.4    c12,3.1,20.1,6.1,24.3,9.1c6.9,5,10.4,12.6,10.4,22.9c0,8.8-3,15.6-9,20.6C738.5,199.2,731.2,201.6,722.3,201.6z"/>
		<path class="st3" d="M792.9,102.8v97.7h-7v-97.7h-28v-7.3h63v7.3H792.9z"/>
		<path class="st3" d="M886.9,200.5l-10.5-33h-38.1l-10.7,33h-7.7l34.7-105h6.4l33.3,105H886.9z M857.8,108.9l-16.9,51.1H874    L857.8,108.9z"/>
		<path class="st3" d="M948.8,149.2c7.8,4.2,11.8,12.4,11.8,24.6v26.6h-6.8v-26.3c0-13.7-6.5-20.6-19.5-20.6h-28.2v46.9h-7v-105    h36.1c17.7,0,26.5,9.2,26.5,27.6C961.7,135.8,957.4,144.6,948.8,149.2z M935.5,102.8h-29.4V146h27.6c6.9,0,12.2-2,15.8-6    c3.6-4,5.4-9.5,5.4-16.4C954.9,109.7,948.4,102.8,935.5,102.8z"/>
	</g>
	<g>
		<path class="st3" d="M634.7,250.8c0,1.7-0.8,3-2.3,4l-2.7,1.7v-0.2l-1.2,0.7c-0.3,0.2-0.8,0.3-1.3,0.3c-1.5,0-2.9-0.7-4-2    c-6.2-9.6-17.3-14.4-33.3-14.4c-13.9,0-24.9,4.1-33,12.3c-8.1,8.2-12.2,19.2-12.2,32.9c0,13.6,3.9,24.5,11.6,32.6    c7.7,8.2,18.3,12.3,31.8,12.3c15.5,0,26.8-5,34-15.1c0.9-1.2,2.1-1.8,3.6-1.8c1.4,0,2.4,0.3,3,1l-0.2-0.2l3.5,2.3l0.7,4.1    c0.2,0.8,0.1,1.4-0.5,2c-9.7,13.3-24.4,19.9-43.9,19.9c-17.2,0-30.8-5.1-40.8-15.2c-10-10.1-15-23.9-15-41.3    c0-17.9,5.2-32.1,15.5-42.5c10.3-10.4,24.3-15.7,42-15.7c20.2,0,34.8,6.5,43.7,19.5l-0.2-0.3C634.3,248.5,634.7,249.4,634.7,250.8    z"/>
		<path class="st3" d="M760.9,285.9c0,8.9-1.3,16.8-3.8,23.7c-2.9,7.5-6.7,13.6-11.4,18.4c-4.7,4.7-10.8,8.5-18.2,11.3    c-6.8,2.7-14.7,4-23.7,4c-17.8,0-31.7-5.1-41.8-15.2c-10.1-10.1-15.2-24.2-15.2-42.2c0-17.8,5.1-31.5,15.4-41.1H662    c9.7-9.7,23.6-14.6,41.7-14.6c17.7,0,31.5,4.9,41.6,14.6C755.7,254.9,760.9,268.6,760.9,285.9z M748.3,285.9    c0-21.1-8.5-34.7-25.5-40.7c-5.5-1.9-11.9-2.8-19-2.8c-14.1,0-25.1,3.8-33,11.3c-7.8,7.5-11.8,18.3-11.8,32.3    c0,13.5,3.8,24.3,11.3,32.5c0.2,0,0.4,0.1,0.7,0.3c8.2,8.2,19.1,12.3,32.8,12.3c13.8,0,24.7-4.1,32.6-12.2    C744.3,310.7,748.3,299.7,748.3,285.9z"/>
		<path class="st3" d="M884.3,285.9c0,8.9-1.3,16.8-3.8,23.7c-2.9,7.5-6.7,13.6-11.4,18.4c-4.7,4.7-10.8,8.5-18.2,11.3    c-6.8,2.7-14.7,4-23.7,4c-17.8,0-31.7-5.1-41.8-15.2c-10.1-10.1-15.2-24.2-15.2-42.2c0-17.8,5.1-31.5,15.4-41.1h-0.2    c9.7-9.7,23.6-14.6,41.7-14.6c17.7,0,31.5,4.9,41.6,14.6C879.1,254.9,884.3,268.6,884.3,285.9z M871.7,285.9    c0-21.1-8.5-34.7-25.5-40.7c-5.5-1.9-11.9-2.8-19-2.8c-14.1,0-25.1,3.8-33,11.3c-7.8,7.5-11.8,18.3-11.8,32.3    c0,13.5,3.8,24.3,11.3,32.5c0.2,0,0.4,0.1,0.7,0.3c8.2,8.2,19.1,12.3,32.8,12.3c13.8,0,24.7-4.1,32.6-12.2    C867.8,310.7,871.7,299.7,871.7,285.9z"/>
		<path class="st3" d="M984.7,262.7c0,10.9-4.2,19.3-12.6,25c-7.3,5-16.6,7.5-28,7.5h-35.3v42.2c0,3.1-1.5,4.6-4.5,4.6h-3.1    c-1.2,0-2.3-0.5-3.2-1.4c-0.9-0.9-1.4-2-1.4-3.2v-103c0-1.2,0.5-2.3,1.4-3.2c0.9-0.9,2-1.4,3.2-1.4h44.4    C971.7,229.7,984.7,240.7,984.7,262.7z M972.3,262.9c0-13.9-8.6-20.9-25.7-20.9h-37.8v40.9h37.9c7.1,0,12.9-1.5,17.4-4.6    C969.6,274.6,972.3,269.5,972.3,262.9z"/>
	</g>
	<g>
		<path class="st0" d="M1020.5,114.1c0,6.6-1.9,12.3-5.7,17.1c-4.5,5.5-10.5,8.3-18.2,8.3c-7.7,0-13.8-2.8-18.2-8.3    c-3.9-4.7-5.8-10.4-5.8-17c0-6.4,2-12.1,6-17c4.5-5.7,10.4-8.5,18-8.5c7.6,0,13.6,2.8,18.1,8.4    C1018.5,102,1020.5,107.6,1020.5,114.1z M1018.2,114.2c0-6-1.8-11.1-5.3-15.5c-4-5-9.5-7.6-16.4-7.6c-6.8,0-12.3,2.5-16.4,7.6    c-3.6,4.3-5.4,9.5-5.4,15.4c0,6,1.8,11.1,5.3,15.5c4,5,9.4,7.6,16.4,7.6c6.8,0,12.3-2.5,16.4-7.6    C1016.4,125.2,1018.2,120.1,1018.2,114.2z M1007.5,107.4c0,3.6-1.2,6.1-3.6,7.4c2.2,1.2,3.3,3.5,3.3,6.7v7.8h-2.4v-7.7    c0-3.7-2-5.6-6-5.6H990v13.3h-2.3v-30h11.4C1004.7,99.4,1007.5,102.1,1007.5,107.4z M1005.2,107.5c0-3.7-2-5.6-6.1-5.6H990v11.6    h8.5C1003,113.6,1005.2,111.6,1005.2,107.5z"/>
	</g>
	<path class="st3" d="M244.4,166.1L42.3,66.8C34.7,63,25.5,63.4,18.2,68C11,72.5,6.5,80.5,6.5,89v261.7c0,9.4,5.3,18,13.8,22.2   l206.2,102.7c7,3.5,15.2,3.5,22.2,0l208.7-104.4c8.4-4.2,13.7-12.8,13.7-22.2V89c0-13.7-11.1-24.8-24.8-24.8   c-13.7,0-24.8,11.1-24.8,24.8v244.7l-183.9,91.9L56.2,335.4V129l166.3,81.8c12.3,6.1,27.2,1,33.3-11.3   C261.8,187.1,256.7,172.2,244.4,166.1z"/>
</g>
</svg>